<svg width="64" height="64" viewBox="0 0 64 64" fill="none" xmlns="http://www.w3.org/2000/svg" role="img" aria-label="Trade Guard logo">
  <defs>
    <linearGradient id="g" x1="8" y1="8" x2="56" y2="56" gradientUnits="userSpaceOnUse">
      <stop stop-color="#6ae4ff"/>
      <stop offset="1" stop-color="#a78bfa"/>
    </linearGradient>
  </defs>
  <path d="M32 6C20.4 6 11 15.4 11 27c0 15.6 18.8 28.3 20 29 1.2-.7 22-13.4 22-29C53 15.4 43.6 6 32 6Z" fill="url(#g)" opacity="0.25"/>
  <path d="M32 10c-9.9 0-18 8.1-18 18 0 12.9 14.9 23.9 18 25.9 3.1-2 18-13 18-25.9 0-9.9-8.1-18-18-18Z" stroke="url(#g)" stroke-width="2"/>
  <path d="M24 33l5 5 11-12" stroke="#34d399" stroke-width="3" stroke-linecap="round" stroke-linejoin="round"/>
  <path d="M22 22h20" stroke="url(#g)" stroke-width="2" stroke-linecap="round"/>
  <path d="M22 26h12" stroke="url(#g)" stroke-width="2" stroke-linecap="round" opacity="0.7"/>
</svg>
